<?xml version="1.0" encoding="utf-8"?>
<svg viewBox="115.60002899169922 47.80000305175781 558.800048828125 255.6000518798828" width="558.800048828125" height="255.6000518798828" xmlns="http://www.w3.org/2000/svg"><g transform="matrix(1, 0, 0, 1, 0, 0)">
	<path d="M 121.5 296.200012 H 573.700012 V 303.400012 H 121.5 V 296.200012 Z" class="st0" style="fill: rgb(167, 169, 172);"/>
	<path d="M 132.6999969482422 223.39999389648438 L 178.6999969482422 223.39999389648438 L 178.6999969482422 187.10000610351562 L 163.8000030517578 187.10000610351562 L 132.6999969482422 201.10000610351562 Z" class="st1" style="fill: rgb(8, 127, 63);"/>
	<path class="st1" d="M121.5,212.2l-5.9-4.5l19.4-31.6h25.9l-20.5,19.4l-7.7-3.1l-7.2,11.2C125.5,203.7,121,208.9,121.5,212.2z" style="fill: rgb(8, 127, 63);"/>
	<path d="M 143.899997 212.199997 A 11.2 11.2 0 0 1 132.699997 223.399997 A 11.2 11.2 0 0 1 121.499997 212.199997 A 11.2 11.2 0 0 1 132.699997 200.999997 A 11.2 11.2 0 0 1 143.899997 212.199997 Z" class="st2" style="fill: rgb(8, 56, 16);"/>
	<path d="M 253.800003 67.599998 H 395.800003 V 73.399999 H 253.800003 V 67.599998 Z" class="st2" style="fill: rgb(8, 56, 16);"/>
	<path class="st2" d="M506.3,218l-3.2-7.3c0,0,4.5-13.7-1.3-19.8l44.4-9.7h-96.3c-10.1,0-20,2.7-28.7,7.7l-14.7,8.5H306.2v0&#10;&#9;&#9;c0-13.9-11.3-25.2-25.2-25.2h-48.1v-16.5h-54.2v83.6l131.7,13h151.3l84.5-27.9l-2.9-6.3H506.3z" style="fill: rgb(8, 56, 16);"/>
	<path d="M 222.6999969482422 155.6999969482422 L 253.8000030517578 72.30000305175781 L 264.1000061035156 72.30000305175781 L 232.89999389648438 155.6999969482422 L 232.89999389648438 155.6999969482422 Z" class="st3" style="fill: rgb(65, 216, 130);"/>
	<g>
		<path d="M 314.900002 240.5 A 58.400002 58.400002 0 0 1 256.5 298.900002 A 58.400002 58.400002 0 0 1 198.099998 240.5 A 58.400002 58.400002 0 0 1 256.5 182.099998 A 58.400002 58.400002 0 0 1 314.900002 240.5 Z"/>
		<path d="M 258.70001220703125 193.1999969482422 L 254.10000610351562 193.1999969482422 L 254.10000610351562 186.8000030517578 L 248.39999389648438 180.3000030517578 L 254.10000610351562 180.3000030517578 L 258.70001220703125 185.39999389648438 Z"/>
		<path d="M 250.39999389648438 193.60000610351562 L 245.89999389648438 194.39999389648438 L 244.8000030517578 188 L 238 182.60000610351562 L 243.6999969482422 181.60000610351562 L 249.10000610351562 185.89999389648438 Z"/>
		<path d="M 242.39999389648438 195.3000030517578 L 238.10000610351562 196.89999389648438 L 235.89999389648438 190.8000030517578 L 228.1999969482422 186.6999969482422 L 233.6999969482422 184.8000030517578 L 239.6999969482422 188 Z"/>
		<path d="M 234.6999969482422 198.5 L 230.8000030517578 200.8000030517578 L 227.5 195.1999969482422 L 219.3000030517578 192.5 L 224.3000030517578 189.60000610351562 L 230.8000030517578 191.6999969482422 Z"/>
		<path d="M 227.8000030517578 202.89999389648438 L 224.3000030517578 205.89999389648438 L 220.10000610351562 200.89999389648438 L 211.60000610351562 199.60000610351562 L 216 195.89999389648438 L 222.8000030517578 196.89999389648438 Z"/>
		<path d="M 221.6999969482422 208.5 L 218.6999969482422 212 L 213.8000030517578 207.8000030517578 L 205.10000610351562 208.10000610351562 L 208.8000030517578 203.6999969482422 L 215.6999969482422 203.5 Z"/>
		<path d="M 216.6999969482422 215 L 214.39999389648438 219 L 208.8000030517578 215.6999969482422 L 200.3000030517578 217.5 L 203.1999969482422 212.5 L 209.89999389648438 211.10000610351562 Z"/>
		<path d="M 212.8000030517578 222.3000030517578 L 211.3000030517578 226.60000610351562 L 205.1999969482422 224.39999389648438 L 197.10000610351562 227.60000610351562 L 199.10000610351562 222.1999969482422 L 205.5 219.60000610351562 Z"/>
		<path d="M 210.3000030517578 230.1999969482422 L 209.5 234.6999969482422 L 203.1999969482422 233.60000610351562 L 195.8000030517578 238.10000610351562 L 196.8000030517578 232.39999389648438 L 202.60000610351562 228.8000030517578 Z"/>
		<path d="M 209.1999969482422 238.39999389648438 L 209.1999969482422 242.89999389648438 L 202.8000030517578 242.89999389648438 L 196.3000030517578 248.6999969482422 L 196.3000030517578 242.89999389648438 L 201.39999389648438 238.39999389648438 Z"/>
		<path d="M 209.60000610351562 246.60000610351562 L 210.39999389648438 251.10000610351562 L 204 252.1999969482422 L 198.60000610351562 259 L 197.60000610351562 253.39999389648438 L 201.89999389648438 248 Z"/>
		<path d="M 211.39999389648438 254.6999969482422 L 212.89999389648438 259 L 206.8000030517578 261.20001220703125 L 202.6999969482422 268.79998779296875 L 200.8000030517578 263.3999938964844 L 204 257.29998779296875 Z"/>
		<path d="M 214.5 262.29998779296875 L 216.8000030517578 266.29998779296875 L 211.1999969482422 269.5 L 208.5 277.70001220703125 L 205.60000610351562 272.70001220703125 L 207.6999969482422 266.20001220703125 Z"/>
		<path d="M 218.89999389648438 269.29998779296875 L 221.89999389648438 272.79998779296875 L 216.89999389648438 276.8999938964844 L 215.60000610351562 285.5 L 212 281.1000061035156 L 212.89999389648438 274.29998779296875 Z"/>
		<path d="M 224.5 275.3999938964844 L 228 278.29998779296875 L 223.8000030517578 283.20001220703125 L 224.10000610351562 291.8999938964844 L 219.6999969482422 288.20001220703125 L 219.5 281.29998779296875 Z"/>
		<path d="M 231 280.3999938964844 L 235 282.70001220703125 L 231.6999969482422 288.29998779296875 L 233.5 296.70001220703125 L 228.5 293.8999938964844 L 227.10000610351562 287.20001220703125 Z"/>
		<path d="M 238.3000030517578 284.20001220703125 L 242.60000610351562 285.79998779296875 L 240.39999389648438 291.8999938964844 L 243.60000610351562 299.8999938964844 L 238.1999969482422 297.8999938964844 L 235.6999969482422 291.6000061035156 Z"/>
		<path d="M 246.1999969482422 286.70001220703125 L 250.6999969482422 287.5 L 249.60000610351562 293.8999938964844 L 254.10000610351562 301.20001220703125 L 248.5 300.20001220703125 L 244.8000030517578 294.3999938964844 Z"/>
		<path d="M 254.39999389648438 287.79998779296875 L 258.8999938964844 287.79998779296875 L 258.8999938964844 294.29998779296875 L 264.70001220703125 300.70001220703125 L 258.8999938964844 300.70001220703125 L 254.39999389648438 295.6000061035156 Z"/>
		<path d="M 262.6000061035156 287.5 L 267.1000061035156 286.70001220703125 L 268.20001220703125 293 L 275 298.3999938964844 L 269.3999938964844 299.3999938964844 L 264 295.1000061035156 Z"/>
		<path d="M 270.70001220703125 285.70001220703125 L 275 284.1000061035156 L 277.20001220703125 290.20001220703125 L 284.79998779296875 294.29998779296875 L 279.3999938964844 296.29998779296875 L 273.29998779296875 293 Z"/>
		<path d="M 278.29998779296875 282.5 L 282.29998779296875 280.29998779296875 L 285.5 285.79998779296875 L 293.70001220703125 288.6000061035156 L 288.70001220703125 291.3999938964844 L 282.20001220703125 289.29998779296875 Z"/>
		<path d="M 285.29998779296875 278.1000061035156 L 288.79998779296875 275.20001220703125 L 292.8999938964844 280.1000061035156 L 301.5 281.3999938964844 L 297.1000061035156 285.1000061035156 L 290.29998779296875 284.1000061035156 Z"/>
		<path d="M 291.3999938964844 272.6000061035156 L 294.29998779296875 269.1000061035156 L 299.29998779296875 273.20001220703125 L 307.8999938964844 273 L 304.20001220703125 277.3999938964844 L 297.29998779296875 277.6000061035156 Z"/>
		<path d="M 296.3999938964844 266 L 298.70001220703125 262.1000061035156 L 304.29998779296875 265.29998779296875 L 312.79998779296875 263.5 L 309.8999938964844 268.5 L 303.20001220703125 269.8999938964844 Z"/>
		<path d="M 300.20001220703125 258.70001220703125 L 301.79998779296875 254.39999389648438 L 307.8999938964844 256.6000061035156 L 315.8999938964844 253.39999389648438 L 313.8999938964844 258.79998779296875 L 307.6000061035156 261.3999938964844 Z"/>
		<path d="M 302.70001220703125 250.8000030517578 L 303.5 246.3000030517578 L 309.8999938964844 247.5 L 317.20001220703125 242.89999389648438 L 316.20001220703125 248.60000610351562 L 310.3999938964844 252.1999969482422 Z"/>
		<path d="M 303.79998779296875 242.6999969482422 L 303.79998779296875 238.10000610351562 L 310.29998779296875 238.10000610351562 L 316.70001220703125 232.3000030517578 L 316.70001220703125 238.10000610351562 L 311.6000061035156 242.6999969482422 Z"/>
		<path d="M 303.5 234.39999389648438 L 302.70001220703125 229.89999389648438 L 309 228.8000030517578 L 314.3999938964844 222 L 315.3999938964844 227.6999969482422 L 311.20001220703125 233.10000610351562 Z"/>
		<path d="M 301.70001220703125 226.39999389648438 L 300.1000061035156 222.10000610351562 L 306.20001220703125 219.89999389648438 L 310.29998779296875 212.1999969482422 L 312.29998779296875 217.60000610351562 L 309 223.6999969482422 Z"/>
		<path d="M 298.5 218.6999969482422 L 296.29998779296875 214.8000030517578 L 301.8999938964844 211.5 L 304.6000061035156 203.3000030517578 L 307.5 208.3000030517578 L 305.29998779296875 214.8000030517578 Z"/>
		<path d="M 294.1000061035156 211.8000030517578 L 291.20001220703125 208.3000030517578 L 296.1000061035156 204.10000610351562 L 297.3999938964844 195.60000610351562 L 301.1000061035156 200 L 300.1000061035156 206.8000030517578 Z"/>
		<path d="M 288.6000061035156 205.6999969482422 L 285.1000061035156 202.6999969482422 L 289.20001220703125 197.8000030517578 L 289 189.10000610351562 L 293.3999938964844 192.8000030517578 L 293.6000061035156 199.6999969482422 Z"/>
		<path d="M 282 200.60000610351562 L 278.1000061035156 198.39999389648438 L 281.29998779296875 192.8000030517578 L 279.6000061035156 184.3000030517578 L 284.5 187.1999969482422 L 285.8999938964844 193.89999389648438 Z"/>
		<path d="M 274.70001220703125 196.8000030517578 L 270.3999938964844 195.3000030517578 L 272.6000061035156 189.1999969482422 L 269.3999938964844 181.10000610351562 L 274.79998779296875 183.10000610351562 L 277.3999938964844 189.5 Z"/>
		<path d="M 266.8999938964844 194.3000030517578 L 262.29998779296875 193.5 L 263.5 187.1999969482422 L 258.8999938964844 179.8000030517578 L 264.6000061035156 180.8000030517578 L 268.20001220703125 186.60000610351562 Z"/>
		<path d="M 298.900002 240.5 A 42.400002 42.400002 0 0 1 256.5 282.900002 A 42.400002 42.400002 0 0 1 214.099998 240.5 A 42.400002 42.400002 0 0 1 256.5 198.099998 A 42.400002 42.400002 0 0 1 298.900002 240.5 Z" class="st4" style="fill: rgb(30, 30, 30);"/>
		<path d="M 289.799999 240.5 A 33.299999 33.299999 0 0 1 256.5 273.799999 A 33.299999 33.299999 0 0 1 223.200001 240.5 A 33.299999 33.299999 0 0 1 256.5 207.200001 A 33.299999 33.299999 0 0 1 289.799999 240.5 Z" class="st5" style="fill: rgb(243, 238, 84);"/>
		<path d="M 285 240.5 A 28.5 28.5 0 0 1 256.5 269 A 28.5 28.5 0 0 1 228 240.5 A 28.5 28.5 0 0 1 256.5 212 A 28.5 28.5 0 0 1 285 240.5 Z" class="st6" style="fill: rgb(152, 115, 1);"/>
		<path d="M 264 240.5 A 7.5 7.5 0 0 1 256.5 248 A 7.5 7.5 0 0 1 249 240.5 A 7.5 7.5 0 0 1 256.5 233 A 7.5 7.5 0 0 1 264 240.5 Z"/>
	</g>
	<g>
		<path d="M 499.899994 256 A 43.5 43.5 0 0 1 456.399994 299.5 A 43.5 43.5 0 0 1 412.899994 256 A 43.5 43.5 0 0 1 456.399994 212.5 A 43.5 43.5 0 0 1 499.899994 256 Z"/>
		<path d="M 458 220.6999969482422 L 454.6000061035156 220.6999969482422 L 454.6000061035156 215.89999389648438 L 450.29998779296875 211.10000610351562 L 454.6000061035156 211.10000610351562 L 458 214.89999389648438 Z"/>
		<path d="M 451.8999938964844 221 L 448.5 221.5 L 447.70001220703125 216.8000030517578 L 442.6000061035156 212.8000030517578 L 446.8999938964844 212.10000610351562 L 450.8999938964844 215.1999969482422 Z"/>
		<path d="M 445.8999938964844 222.3000030517578 L 442.70001220703125 223.39999389648438 L 441 218.89999389648438 L 435.3999938964844 215.8000030517578 L 439.3999938964844 214.39999389648438 L 443.8999938964844 216.8000030517578 Z"/>
		<path d="M 440.20001220703125 224.60000610351562 L 437.20001220703125 226.3000030517578 L 434.79998779296875 222.10000610351562 L 428.70001220703125 220.10000610351562 L 432.3999938964844 218 L 437.29998779296875 219.60000610351562 Z"/>
		<path d="M 435 227.89999389648438 L 432.3999938964844 230.10000610351562 L 429.29998779296875 226.39999389648438 L 422.8999938964844 225.5 L 426.20001220703125 222.6999969482422 L 431.29998779296875 223.5 Z"/>
		<path d="M 430.5 232.10000610351562 L 428.29998779296875 234.6999969482422 L 424.6000061035156 231.60000610351562 L 418.1000061035156 231.8000030517578 L 420.8999938964844 228.5 L 426 228.3000030517578 Z"/>
		<path d="M 426.70001220703125 236.89999389648438 L 425 239.89999389648438 L 420.79998779296875 237.5 L 414.5 238.8000030517578 L 416.6000061035156 235.10000610351562 L 421.70001220703125 234 Z"/>
		<path d="M 423.8999938964844 242.39999389648438 L 422.70001220703125 245.60000610351562 L 418.20001220703125 243.89999389648438 L 412.20001220703125 246.3000030517578 L 413.6000061035156 242.3000030517578 L 418.3999938964844 240.39999389648438 Z"/>
		<path d="M 422 248.3000030517578 L 421.3999938964844 251.60000610351562 L 416.70001220703125 250.8000030517578 L 411.20001220703125 254.1999969482422 L 411.8999938964844 249.89999389648438 L 416.29998779296875 247.1999969482422 Z"/>
		<path d="M 421.20001220703125 254.3000030517578 L 421.20001220703125 257.79998779296875 L 416.3999938964844 257.79998779296875 L 411.5 262 L 411.5 257.79998779296875 L 415.3999938964844 254.3000030517578 Z"/>
		<path d="M 421.3999938964844 260.5 L 422 263.8999938964844 L 417.29998779296875 264.70001220703125 L 413.29998779296875 269.79998779296875 L 412.5 265.5 L 415.70001220703125 261.5 Z"/>
		<path d="M 422.79998779296875 266.5 L 423.8999938964844 269.70001220703125 L 419.3999938964844 271.3999938964844 L 416.29998779296875 277 L 414.8999938964844 273 L 417.29998779296875 268.5 Z"/>
		<path d="M 425.1000061035156 272.20001220703125 L 426.79998779296875 275.20001220703125 L 422.6000061035156 277.6000061035156 L 420.6000061035156 283.70001220703125 L 418.5 280 L 420.1000061035156 275.1000061035156 Z"/>
		<path d="M 428.3999938964844 277.3999938964844 L 430.6000061035156 280 L 426.8999938964844 283.1000061035156 L 426 289.5 L 423.20001220703125 286.20001220703125 L 423.8999938964844 281.1000061035156 Z"/>
		<path d="M 432.5 281.8999938964844 L 435.20001220703125 284.1000061035156 L 432.1000061035156 287.79998779296875 L 432.20001220703125 294.29998779296875 L 429 291.5 L 428.79998779296875 286.3999938964844 Z"/>
		<path d="M 437.3999938964844 285.70001220703125 L 440.3999938964844 287.3999938964844 L 438 291.6000061035156 L 439.29998779296875 297.8999938964844 L 435.6000061035156 295.70001220703125 L 434.5 290.70001220703125 Z"/>
		<path d="M 442.8999938964844 288.5 L 446.1000061035156 289.70001220703125 L 444.3999938964844 294.20001220703125 L 446.79998779296875 300.20001220703125 L 442.79998779296875 298.79998779296875 L 440.8999938964844 294 Z"/>
		<path d="M 448.70001220703125 290.3999938964844 L 452.1000061035156 291 L 451.29998779296875 295.70001220703125 L 454.6000061035156 301.20001220703125 L 450.3999938964844 300.5 L 447.70001220703125 296.1000061035156 Z"/>
		<path d="M 454.79998779296875 291.20001220703125 L 458.20001220703125 291.20001220703125 L 458.20001220703125 296 L 462.5 300.8999938964844 L 458.20001220703125 300.8999938964844 L 454.79998779296875 297 Z"/>
		<path d="M 461 291 L 464.29998779296875 290.3999938964844 L 465.20001220703125 295.1000061035156 L 470.20001220703125 299.1000061035156 L 466 299.8999938964844 L 462 296.70001220703125 Z"/>
		<path d="M 467 289.6000061035156 L 470.20001220703125 288.5 L 471.79998779296875 293 L 477.5 296.1000061035156 L 473.5 297.5 L 469 295.1000061035156 Z"/>
		<path d="M 472.70001220703125 287.29998779296875 L 475.6000061035156 285.6000061035156 L 478 289.79998779296875 L 484.20001220703125 291.79998779296875 L 480.5 293.8999938964844 L 475.6000061035156 292.29998779296875 Z"/>
		<path d="M 477.8999938964844 284 L 480.5 281.79998779296875 L 483.6000061035156 285.5 L 490 286.3999938964844 L 486.70001220703125 289.20001220703125 L 481.6000061035156 288.5 Z"/>
		<path d="M 482.3999938964844 279.8999938964844 L 484.6000061035156 277.20001220703125 L 488.29998779296875 280.29998779296875 L 494.79998779296875 280.1000061035156 L 492 283.3999938964844 L 486.8999938964844 283.6000061035156 Z"/>
		<path d="M 486.20001220703125 275 L 487.8999938964844 272 L 492.1000061035156 274.3999938964844 L 498.3999938964844 273.1000061035156 L 496.20001220703125 276.79998779296875 L 491.20001220703125 277.8999938964844 Z"/>
		<path d="M 489 269.5 L 490.20001220703125 266.29998779296875 L 494.70001220703125 268 L 500.70001220703125 265.6000061035156 L 499.20001220703125 269.6000061035156 L 494.5 271.5 Z"/>
		<path d="M 490.8999938964844 263.70001220703125 L 491.5 260.29998779296875 L 496.20001220703125 261.1000061035156 L 501.70001220703125 257.79998779296875 L 501 262 L 496.6000061035156 264.70001220703125 Z"/>
		<path d="M 491.70001220703125 257.6000061035156 L 491.70001220703125 254.10000610351562 L 496.5 254.10000610351562 L 501.29998779296875 249.89999389648438 L 501.29998779296875 254.10000610351562 L 497.5 257.6000061035156 Z"/>
		<path d="M 491.3999938964844 251.39999389648438 L 490.79998779296875 248.10000610351562 L 495.6000061035156 247.1999969482422 L 499.6000061035156 242.1999969482422 L 500.29998779296875 246.39999389648438 L 497.20001220703125 250.39999389648438 Z"/>
		<path d="M 490.1000061035156 245.39999389648438 L 489 242.1999969482422 L 493.5 240.5 L 496.5 234.89999389648438 L 498 238.89999389648438 L 495.6000061035156 243.39999389648438 Z"/>
		<path d="M 487.79998779296875 239.6999969482422 L 486.1000061035156 236.8000030517578 L 490.20001220703125 234.39999389648438 L 492.29998779296875 228.1999969482422 L 494.3999938964844 231.89999389648438 L 492.79998779296875 236.8000030517578 Z"/>
		<path d="M 484.5 234.5 L 482.29998779296875 231.89999389648438 L 486 228.8000030517578 L 486.8999938964844 222.39999389648438 L 489.70001220703125 225.6999969482422 L 488.8999938964844 230.8000030517578 Z"/>
		<path d="M 480.29998779296875 230 L 477.70001220703125 227.8000030517578 L 480.79998779296875 224.10000610351562 L 480.6000061035156 217.60000610351562 L 483.8999938964844 220.39999389648438 L 484.1000061035156 225.5 Z"/>
		<path d="M 475.5 226.1999969482422 L 472.5 224.5 L 474.8999938964844 220.3000030517578 L 473.6000061035156 214 L 477.29998779296875 216.1999969482422 L 478.3999938964844 221.1999969482422 Z"/>
		<path d="M 470 223.39999389648438 L 466.79998779296875 222.1999969482422 L 468.3999938964844 217.6999969482422 L 466.1000061035156 211.6999969482422 L 470.1000061035156 213.10000610351562 L 472 217.89999389648438 Z"/>
		<path d="M 464.1000061035156 221.5 L 460.79998779296875 220.89999389648438 L 461.6000061035156 216.1999969482422 L 458.20001220703125 210.6999969482422 L 462.5 211.39999389648438 L 465.20001220703125 215.8000030517578 Z"/>
		<path d="M 487.999994 256 A 31.6 31.6 0 0 1 456.399994 287.6 A 31.6 31.6 0 0 1 424.799994 256 A 31.6 31.6 0 0 1 456.399994 224.4 A 31.6 31.6 0 0 1 487.999994 256 Z" class="st4" style="fill: rgb(30, 30, 30);"/>
		<path d="M 481.199993 256 A 24.799999 24.799999 0 0 1 456.399994 280.799999 A 24.799999 24.799999 0 0 1 431.599995 256 A 24.799999 24.799999 0 0 1 456.399994 231.200001 A 24.799999 24.799999 0 0 1 481.199993 256 Z" class="st5" style="fill: rgb(243, 238, 84);"/>
		<path d="M 477.599995 256 A 21.200001 21.200001 0 0 1 456.399994 277.200001 A 21.200001 21.200001 0 0 1 435.199993 256 A 21.200001 21.200001 0 0 1 456.399994 234.799999 A 21.200001 21.200001 0 0 1 477.599995 256 Z" class="st6" style="fill: rgb(152, 115, 1);"/>
		<path d="M 461.999994 256 A 5.6 5.6 0 0 1 456.399994 261.6 A 5.6 5.6 0 0 1 450.799994 256 A 5.6 5.6 0 0 1 456.399994 250.4 A 5.6 5.6 0 0 1 461.999994 256 Z"/>
	</g>
	<path class="st1" d="M264.1,72.3l-31.2,83.3v16.5H281c13.9,0,25.2,11.3,25.2,25.2v0h100.2l14.7-8.5c8.7-5.1,18.7-7.7,28.7-7.7h96.3&#10;&#9;&#9;c0,0,1.8-60.3-15.8-60.3c-55.2,0-230.2,0-230.2,0V77h107.4v-4.7H264.1z" style="fill: rgb(8, 127, 63);"/>
	<path d="M 245.89999389648438 120.80000305175781 L 300.1000061035156 120.80000305175781 L 300.1000061035156 116.9000015258789 L 247.39999389648438 116.9000015258789 Z" class="st2" style="fill: rgb(8, 56, 16);"/>
	<path class="st3" d="M249,158.2c0,0,200.4-4.6,258.6-9c6.2-0.5,4.8-18.7,2.6-25.1c0,0,6.6,18.7,4.7,29.5&#10;&#9;&#9;C513.8,159.6,249,158.2,249,158.2z" style="fill: rgb(65, 216, 130);"/>
	<path d="M 307.5 114.300003 H 344.299999 V 120.800003 H 307.5 V 114.300003 Z"/>
	<path class="st1" d="M642.1,86.7H341.5h-3.6c-15.3,0-27.7,12.4-27.7,27.7h31.3h300.6h24.4v-3.2C666.5,97.6,655.5,86.7,642.1,86.7z" style="fill: rgb(8, 127, 63);"/>
	<path d="M 674.4000244140625 128.39999389648438 L 650 128.39999389648438 L 642.0999755859375 114.30000305175781 L 666.5 114.30000305175781 Z"/>
	<path d="M 396.29998779296875 47.79999923706055 L 255.10000610351562 47.79999923706055 L 229.1999969482422 57.70000076293945 L 253.8000030517578 67.5999984741211 L 395.79998779296875 67.5999984741211 L 422.20001220703125 57.70000076293945 Z" class="st1" style="fill: rgb(8, 127, 63);"/>
	<path class="st1" d="M210.9,267.6h-38.4V165.3h38.4V267.6z M175.7,264.4h31.9v-95.8h-31.9V264.4z" style="fill: rgb(8, 127, 63);"/>
	<path d="M 174.100006 189.199997 H 209.300007 V 192.399997 H 174.100006 V 189.199997 Z" class="st1" style="fill: rgb(8, 127, 63);"/>
	<path d="M 174.100006 213.399994 H 209.300007 V 216.599994 H 174.100006 V 213.399994 Z" class="st1" style="fill: rgb(8, 127, 63);"/>
	<path d="M 174.100006 237.600006 H 209.300007 V 240.800006 H 174.100006 V 237.600006 Z" class="st1" style="fill: rgb(8, 127, 63);"/>
	<path d="M 178.6999969482422 155.6999969482422 L 166.10000610351562 85.19999694824219 L 249 85.19999694824219 L 222.6999969482422 155.6999969482422 Z" class="st7" style="fill: rgb(230, 231, 232);"/>
	<path d="M 184.6999969482422 151.8000030517578 L 174.3000030517578 91.69999694824219 L 238 91.69999694824219 L 215.60000610351562 151.8000030517578 Z" class="st8" style="fill: rgb(255, 255, 255);"/>
	<path d="M 174.10000610351562 85.19999694824219 L 166.10000610351562 75.9000015258789 L 252.5 75.9000015258789 L 249 85.19999694824219 Z" class="st1" style="fill: rgb(8, 127, 63);"/>
	<path class="st9" d="M215.3,70.5v-7.7c0-4.2-3.5-7.7-7.7-7.7c-4.2,0-7.7,3.5-7.7,7.7v7.7H215.3z" style="fill: rgb(255, 104, 5);"/>
	<path d="M 197.899994 70.5 H 217.099995 V 75.9 H 197.899994 V 70.5 Z"/>
	<path d="M 211.300003 61.400002 A 5 5 0 0 1 206.300003 66.400002 A 5 5 0 0 1 201.300003 61.400002 A 5 5 0 0 1 206.300003 56.400002 A 5 5 0 0 1 211.300003 61.400002 Z" class="st8" style="fill: rgb(255, 255, 255);"/>
	<path d="M 505.8 200.600006 A 15.8 15.8 0 0 1 490 216.400006 A 15.8 15.8 0 0 1 474.2 200.600006 A 15.8 15.8 0 0 1 490 184.800006 A 15.8 15.8 0 0 1 505.8 200.600006 Z" class="st2" style="fill: rgb(8, 56, 16);"/>
	<path d="M 389.5 195.899994 H 393.6 V 252.799995 H 389.5 V 195.899994 Z" class="st1" style="fill: rgb(8, 127, 63);"/>
	<path d="M 325.899994 195.899994 H 329.999994 V 252.799995 H 325.899994 V 195.899994 Z" class="st1" style="fill: rgb(8, 127, 63);"/>
	<path class="st3" d="M640,93.6H339.7c-1.1,0-2.1-0.9-2.1-2.1v0c0-1.1,0.9-2.1,2.1-2.1H640c1.1,0,2.1,0.9,2.1,2.1v0&#10;&#9;&#9;C642.1,92.7,641.1,93.6,640,93.6z" style="fill: rgb(65, 216, 130);"/>
	<path d="M 256 49.5 L 395.79998779296875 49.5 L 386.3999938964844 65.0999984741211 L 389.5 51.900001525878906 L 259.79998779296875 51.900001525878906 L 264.1000061035156 65.0999984741211 Z" class="st2" style="fill: rgb(8, 56, 16);"/>
	<path class="st1" d="M255.9,147.6H234c-5.2,0-10.1-2.6-12.9-7c-2.9-4.4-3.3-9.8-1.2-14.6l8.3-18.9c2.5-5.6,8-9.2,14.1-9.2h21.1v5.4&#10;&#9;&#9;h-21.1c-4,0-7.6,2.4-9.2,6l-8.3,18.9c-1.4,3.2-1.1,6.6,0.8,9.5c1.9,2.9,5,4.5,8.4,4.5h21.9V147.6z" style="fill: rgb(8, 127, 63);"/>
</g></svg>