<?xml version="1.0" encoding="utf-8"?>
<svg xmlns="http://www.w3.org/2000/svg" viewBox="177.21493530273438 362.8636779785156 1999.9998779296875 1627" width="1999.9998779296875" height="1627">
  <g transform="matrix(1, 0, 0, 1, -22.785108566283952, -254.43637084960938)">
		<g>
			
			<path class="st55" d="M1654.9,674.8h-626l-104.6,575.1H301.5c-34.2,0-58.4,27.7-53.8,61.6l66.1,485.3&#10;&#9;&#9;&#9;&#9;c4.6,33.9,36.4,61.6,70.5,61.6h1332.7c34.2,0,62.2-28,62.2-62.2v-506.4L1654.9,674.8z M1414.9,1140.7l-151.4,151.4H997.3v-39.6&#10;&#9;&#9;&#9;&#9;l91.3-511.2h501.2l75.4,399.5H1414.9z" style="fill: rgb(237, 28, 36);"/>
			<path class="st343" d="M664.7,1307.3l41.4,180.3h17.4l-41.4-180.3H664.7z M567.4,1307.3l41.4,180.3h17.4l-41.4-180.3H567.4z&#10;&#9;&#9;&#9;&#9; M616,1307.3l41.4,180.3h17.4l-41.4-180.3H616z M713.3,1307.3l41.4,180.3h17.4l-41.4-180.3H713.3z M827.9,1307.3h-17.4&#10;&#9;&#9;&#9;&#9;l41.4,180.3h17.4L827.9,1307.3z M761.9,1307.3l41.4,180.3h17.4l-41.4-180.3H761.9z" style="fill: rgb(158, 11, 15);"/>
			<g>
				<path class="st259" d="M330.6,1379.2c0,53.2-43.1,96.4-96.4,96.4c-20.1,0-34.2-43.1-34.2-96.4c0-53.2,14.1-96.4,34.2-96.4&#10;&#9;&#9;&#9;&#9;&#9;C287.4,1282.8,330.6,1326,330.6,1379.2z" style="fill: rgb(188, 190, 192);"/>
				<path class="st344" d="M330.6,1379.2c0,53.2-43.1,96.4-96.4,96.4v-192.8C287.4,1282.8,330.6,1326,330.6,1379.2z" style="fill: rgb(40, 40, 41);"/>
			</g>
			<path d="M 1690.4000244140625 617.2999877929688 L 893.7999877929688 617.2999877929688 L 893.7999877929688 639.5999755859375 L 1028.9000244140625 674.7999877929688 L 1690.4000244140625 674.7999877929688 Z" class="st283" style="fill: rgb(196, 22, 28);"/>
			<path class="st283" d="M1610.5,718h-543.2l-97.1,531.9v379.9H1403v-379.9l54.5-66.2h243.2L1610.5,718z M1414.9,1140.7&#10;&#9;&#9;&#9;&#9;l-151.4,151.4H997.3v-39.6l91.3-511.2h501.2l75.4,399.5H1414.9z" style="fill: rgb(196, 22, 28);"/>
			<g>
				<path class="st344" d="M1213.5,1312.1l-64.8-145.8c-3.8-8.5-13.7-12.3-22.2-8.5c-8.5,3.8-12.3,13.7-8.5,22.2l26.5,59.7l-108,48&#10;&#9;&#9;&#9;&#9;&#9;l11.8,26.5l108-48l26.5,59.7c3.8,8.5,13.7,12.3,22.2,8.5C1213.4,1330.5,1217.3,1320.5,1213.5,1312.1z" style="fill: rgb(40, 40, 41);"/>
				<path class="st343" d="M1076,1352.8l-46.3-102.9h-59.4v379.9H1076V1352.8z" style="fill: rgb(158, 11, 15);"/>
			</g>
		</g>
		<g>
			<path class="st343" d="M553.7,1901.9h313.6c-26-180.8-181.6-319.8-369.6-319.8c-25.4,0-50.1,2.5-74.1,7.4L553.7,1901.9z" style="fill: rgb(158, 11, 15);"/>
			<path class="st283" d="M893.8,1901.9c-26.2-195.3-193.6-346-396.1-346c-28.9,0-57.1,3.1-84.3,8.9l10.2,24.6&#10;&#9;&#9;&#9;&#9;c23.9-4.8,48.7-7.4,74.1-7.4c188,0,343.6,139,369.6,319.8H893.8z" style="fill: rgb(196, 22, 28);"/>
		</g>
		<g>
			<path class="st343" d="M1273.8,1702.8h488.1l319.4-279.8c-86.5-72.2-197.9-115.7-319.4-115.7&#10;&#9;&#9;&#9;&#9;C1521.8,1307.3,1321.4,1476.9,1273.8,1702.8z" style="fill: rgb(158, 11, 15);"/>
			<path class="st283" d="M1761.9,1269.1c-244.9,0-451.5,163.9-516,388H933.1v45.7h301.8h38.9c47.6-225.9,248-395.5,488.1-395.5&#10;&#9;&#9;&#9;&#9;c121.5,0,232.9,43.5,319.4,115.7l29-25.4C2016.6,1317.5,1894.9,1269.1,1761.9,1269.1z" style="fill: rgb(196, 22, 28);"/>
		</g>
		<g>
			<path d="M 766.200012 1955.599976 A 268.5 268.5 0 0 1 497.700012 2224.099976 A 268.5 268.5 0 0 1 229.200012 1955.599976 A 268.5 268.5 0 0 1 497.700012 1687.099976 A 268.5 268.5 0 0 1 766.200012 1955.599976 Z" class="st256" style="fill: rgb(65, 64, 66);"/>
			<path d="M 647.500015 1955.599976 A 149.800003 149.800003 0 0 1 497.700012 2105.399979 A 149.800003 149.800003 0 0 1 347.900009 1955.599976 A 149.800003 149.800003 0 0 1 497.700012 1805.799973 A 149.800003 149.800003 0 0 1 647.500015 1955.599976 Z" class="st254" style="fill: rgb(109, 110, 113);"/>
			<path class="st344" d="M293.7,1820.6l-29.2-21.8c-3.7-2.7-8.5-1.7-10.8,2.2l-11.9,20.6c-2.3,3.9-0.7,8.7,3.5,10.5l33.5,14.4&#10;&#9;&#9;&#9;&#9;c4.2,1.8,9.5,0,11.8-3.9l5.7-9.8C298.5,1828.8,297.3,1823.3,293.7,1820.6z M290.5,2068.7c-2.3-3.9-7.6-5.7-11.8-3.9l-33.5,14.4&#10;&#9;&#9;&#9;&#9;c-4.2,1.8-5.7,6.5-3.5,10.5l11.9,20.6c2.3,3.9,7.1,4.9,10.8,2.2l29.3-21.8c3.7-2.7,4.8-8.2,2.5-12.1L290.5,2068.7z M341.7,2132.7&#10;&#9;&#9;&#9;&#9;c-3.5-2.9-9.1-2.8-12.4,0.4l-26.6,25c-3.3,3.1-3.2,8.1,0.3,11l18.2,15.3c3.5,2.9,8.4,2.2,10.9-1.6l20-30.5&#10;&#9;&#9;&#9;&#9;c2.5-3.8,1.7-9.3-1.8-12.3L341.7,2132.7z M332.1,1728.5c-2.5-3.8-7.4-4.5-10.9-1.6l-18.2,15.3c-3.5,2.9-3.6,7.9-0.3,11l26.6,25&#10;&#9;&#9;&#9;&#9;c3.3,3.1,8.9,3.3,12.4,0.4l8.7-7.3c3.5-2.9,4.3-8.4,1.8-12.3L332.1,1728.5z M422.3,2179.2l-10.6-3.9c-4.3-1.6-9.5,0.5-11.5,4.6&#10;&#9;&#9;&#9;&#9;l-16.4,32.6c-2,4.1-0.2,8.7,4.1,10.2l22.3,8.1c4.3,1.6,8.6-0.8,9.7-5.2l8.4-35.5C429.2,2185.7,426.6,2180.8,422.3,2179.2z&#10;&#9;&#9;&#9;&#9; M266.3,2002.1l-2-11.1c-0.8-4.5-5.2-7.9-9.7-7.7l-36.4,2.1c-4.6,0.3-7.6,4.1-6.8,8.6l4.1,23.4c0.8,4.5,5,7.1,9.4,5.8l34.9-10.5&#10;&#9;&#9;&#9;&#9;C264.2,2011.4,267.1,2006.6,266.3,2002.1z M704.8,1842.6c2.3,3.9,7.6,5.7,11.8,3.9l33.5-14.4c4.2-1.8,5.8-6.5,3.5-10.5&#10;&#9;&#9;&#9;&#9;l-11.9-20.6c-2.3-4-7.1-5-10.8-2.2l-29.2,21.8c-3.7,2.7-4.8,8.2-2.5,12.1L704.8,1842.6z M218.2,1925.8l36.4,2.1&#10;&#9;&#9;&#9;&#9;c4.6,0.3,8.9-3.2,9.7-7.7l2-11.1c0.8-4.5-2.1-9.2-6.5-10.5l-34.9-10.5c-4.4-1.3-8.6,1.3-9.4,5.8l-4.1,23.4&#10;&#9;&#9;&#9;&#9;C210.6,1921.7,213.6,1925.6,218.2,1925.8z M729,1909.1l2,11.2c0.8,4.5,5.2,8,9.7,7.7l36.4-2.1c4.5-0.3,7.6-4.1,6.8-8.6l-4.1-23.4&#10;&#9;&#9;&#9;&#9;c-0.8-4.5-5-7.1-9.4-5.8l-35,10.5C731.1,1899.8,728.2,1904.6,729,1909.1z M674.1,1726.9c-3.5-2.9-8.4-2.2-10.9,1.6l-20,30.5&#10;&#9;&#9;&#9;&#9;c-2.5,3.8-1.7,9.3,1.8,12.3l8.7,7.3c3.5,2.9,9.1,2.8,12.4-0.4l26.6-25c3.3-3.1,3.2-8.1-0.3-11L674.1,1726.9z M666,2133.1&#10;&#9;&#9;&#9;&#9;c-3.3-3.1-8.9-3.3-12.4-0.4l-8.7,7.3c-3.5,2.9-4.3,8.4-1.8,12.3l20,30.5c2.5,3.8,7.4,4.5,10.9,1.6l18.2-15.3&#10;&#9;&#9;&#9;&#9;c3.5-2.9,3.6-7.9,0.3-11L666,2133.1z M750.1,2079.2l-33.5-14.4c-4.2-1.8-9.5,0-11.8,3.9l-5.7,9.8c-2.3,3.9-1.2,9.4,2.5,12.1&#10;&#9;&#9;&#9;&#9;l29.2,21.8c3.7,2.7,8.5,1.7,10.8-2.2l11.9-20.6C755.8,2085.7,754.3,2081,750.1,2079.2z M419.8,1685.6c-1-4.4-5.4-6.8-9.7-5.2&#10;&#9;&#9;&#9;&#9;l-22.3,8.1c-4.3,1.6-6.1,6.2-4.1,10.2l16.4,32.6c2,4.1,7.2,6.1,11.5,4.6l10.6-3.9c4.3-1.6,6.9-6.5,5.9-10.9L419.8,1685.6z&#10;&#9;&#9;&#9;&#9; M777.1,1985.4l-36.4-2.1c-4.6-0.3-8.9,3.2-9.7,7.7l-2,11.2c-0.8,4.5,2.1,9.2,6.5,10.5l34.9,10.5c4.4,1.3,8.6-1.3,9.4-5.8&#10;&#9;&#9;&#9;&#9;l4.1-23.4C784.8,1989.5,781.7,1985.7,777.1,1985.4z M512.6,2199.8c-0.5-4.5-4.7-8.2-9.3-8.2l-11.3,0c-4.6,0-8.7,3.7-9.3,8.2&#10;&#9;&#9;&#9;&#9;l-4.3,36.2c-0.5,4.5,2.8,8.2,7.3,8.2l23.8,0c4.6,0,7.9-3.7,7.3-8.2L512.6,2199.8z M509.5,1667h-23.8c-4.6,0-7.9,3.7-7.3,8.2&#10;&#9;&#9;&#9;&#9;l4.3,36.2c0.5,4.5,4.7,8.2,9.3,8.2h11.3c4.6,0,8.7-3.7,9.3-8.2l4.3-36.2C517.4,1670.7,514.1,1667,509.5,1667z M607.5,1688.5&#10;&#9;&#9;&#9;&#9;l-22.3-8.1c-4.3-1.6-8.6,0.8-9.7,5.2l-8.4,35.5c-1,4.4,1.6,9.3,5.9,10.9l10.6,3.9c4.3,1.6,9.5-0.5,11.5-4.6l16.4-32.6&#10;&#9;&#9;&#9;&#9;C613.6,1694.6,611.8,1690,607.5,1688.5z M595.2,2179.9c-2-4.1-7.2-6.1-11.5-4.6l-10.6,3.9c-4.3,1.6-6.9,6.5-5.9,10.9l8.4,35.5&#10;&#9;&#9;&#9;&#9;c1,4.4,5.4,6.8,9.7,5.2l22.3-8.1c4.3-1.6,6.1-6.2,4.1-10.2L595.2,2179.9z" style="fill: rgb(40, 40, 41);"/>
			<path d="M 538.300011 1955.599976 A 40.599998 40.599998 0 0 1 497.700012 1996.199974 A 40.599998 40.599998 0 0 1 457.100014 1955.599976 A 40.599998 40.599998 0 0 1 497.700012 1914.999977 A 40.599998 40.599998 0 0 1 538.300011 1955.599976 Z" class="st255" style="fill: rgb(88, 89, 91);"/>
			<g>
				<path d="M 520.300013 1864.800049 A 22.6 22.6 0 0 1 497.700012 1887.400049 A 22.6 22.6 0 0 1 475.100012 1864.800049 A 22.6 22.6 0 0 1 497.700012 1842.200048 A 22.6 22.6 0 0 1 520.300013 1864.800049 Z" class="st344" style="fill: rgb(40, 40, 41);"/>
				<path class="st344" d="M430.3,1890.6c10.8,6.2,14.5,20.1,8.3,30.9c-6.2,10.8-20.1,14.5-30.9,8.3c-10.8-6.2-14.5-20.1-8.3-30.9&#10;&#9;&#9;&#9;&#9;&#9;C405.7,1888.1,419.5,1884.4,430.3,1890.6z" style="fill: rgb(40, 40, 41);"/>
				<path class="st344" d="M407.7,1981.4c10.8-6.2,24.7-2.5,30.9,8.3c6.2,10.8,2.5,24.7-8.3,30.9c-10.8,6.2-24.7,2.5-30.9-8.3&#10;&#9;&#9;&#9;&#9;&#9;C393.2,2001.5,396.9,1987.7,407.7,1981.4z" style="fill: rgb(40, 40, 41);"/>
				<path class="st344" d="M475,2046.4c0-12.5,10.1-22.6,22.6-22.6c12.5,0,22.6,10.1,22.6,22.6c0,12.5-10.1,22.6-22.6,22.6&#10;&#9;&#9;&#9;&#9;&#9;C485.2,2069.1,475,2058.9,475,2046.4z" style="fill: rgb(40, 40, 41);"/>
				<path class="st344" d="M565,2020.6c-10.8-6.2-14.5-20.1-8.3-30.9c6.2-10.8,20.1-14.5,30.9-8.3c10.8,6.2,14.5,20.1,8.3,30.9&#10;&#9;&#9;&#9;&#9;&#9;C589.7,2023.2,575.8,2026.9,565,2020.6z" style="fill: rgb(40, 40, 41);"/>
				<path class="st344" d="M587.6,1929.8c-10.8,6.3-24.7,2.5-30.9-8.3c-6.2-10.8-2.5-24.7,8.3-30.9c10.8-6.3,24.6-2.5,30.9,8.3&#10;&#9;&#9;&#9;&#9;&#9;C602.1,1909.7,598.4,1923.5,587.6,1929.8z" style="fill: rgb(40, 40, 41);"/>
			</g>
		</g>
		<g>
			<path class="st256" d="M2173.6,1806.1c0,227.4-184.3,411.7-411.7,411.7c-227.4,0-411.7-184.3-411.7-411.7&#10;&#9;&#9;&#9;&#9;c0-227.4,184.3-411.7,411.7-411.7C1989.3,1394.4,2173.6,1578.8,2173.6,1806.1z" style="fill: rgb(65, 64, 66);"/>
			<path class="st344" d="M1418.9,1912.7l-3.2-11.8c-1.3-4.7-6.1-7.5-11.2-7.3l-63.4,0.7c-5.5,0-7.8,5.2-6.5,9.9l6.6,24.7&#10;&#9;&#9;&#9;&#9;c1.3,4.7,7,5.9,10.6,5.3l60.4-9.5C1418.8,1923.6,1420.2,1917.4,1418.9,1912.7z M1342.8,1712l57,22c6.2,2.3,10.5-2.4,11.8-7.1&#10;&#9;&#9;&#9;&#9;l3.2-11.8c1.3-4.7-1.6-9.5-6-11.9l-55.2-31.1c-4.8-2.7-9.3,0.6-10.6,5.3l-6.6,24.7C1335,1706.8,1339.4,1710.8,1342.8,1712z&#10;&#9;&#9;&#9;&#9; M1403,1820.3v-12.2c0-4.9-4-8.8-8.9-10l-61.4-15.8c-5.3-1.4-8.9,3-8.9,7.9v25.6c0,4.9,5.3,7.6,8.9,7.9l60.8,6.5&#10;&#9;&#9;&#9;&#9;C1400.1,1830.8,1403,1825.2,1403,1820.3z M1458.1,1997.8l-6.1-10.6c-2.5-4.3-7.8-5.6-12.7-4.2l-61.1,17c-5.3,1.5-6.2,7-3.7,11.3&#10;&#9;&#9;&#9;&#9;l12.8,22.2c2.5,4.3,8.3,3.9,11.6,2.4l55.9-24.8C1460.9,2008.4,1460.6,2002.1,1458.1,1997.8z M1509.5,2061.3&#10;&#9;&#9;&#9;&#9;c-3.5-3.5-9-3.4-13.3-0.8l-54.6,32.3c-4.7,2.8-4.2,8.4-0.7,11.9l18.1,18.1c3.5,3.5,9.1,1.6,11.8-0.7l47.6-38.4&#10;&#9;&#9;&#9;&#9;c5.1-4.2,3.2-10.3-0.3-13.7L1509.5,2061.3z M1643.3,1456.5c1.1,6.5,7.3,7.9,12,6.6l11.8-3.2c4.7-1.3,7.5-6.1,7.3-11.2l-0.7-63.4&#10;&#9;&#9;&#9;&#9;c0-5.5-5.2-7.8-9.9-6.5l-24.7,6.6c-4.7,1.3-6,7-5.3,10.6L1643.3,1456.5z M1594.7,2124l-10.6-6.1c-4.3-2.5-9.6-1-13.1,2.7&#10;&#9;&#9;&#9;&#9;l-44.4,45.3c-3.9,3.9-1.9,9.2,2.4,11.6l22.2,12.8c4.3,2.5,9.2-0.8,11.3-3.7l36-49.4C1602.4,2131.9,1598.9,2126.5,1594.7,2124z&#10;&#9;&#9;&#9;&#9; M2065.7,1614.5l6.1,10.6c2.5,4.3,7.8,5.6,12.7,4.2l61.1-17.1c5.3-1.4,6.2-7,3.7-11.3l-12.8-22.2c-2.5-4.3-8.3-3.9-11.6-2.4&#10;&#9;&#9;&#9;&#9;l-55.9,24.8C2062.9,1603.9,2063.2,1610.2,2065.7,1614.5z M2104.9,1699.6l3.2,11.8c1.3,4.8,6.1,7.5,11.2,7.4l63.4-0.7&#10;&#9;&#9;&#9;&#9;c5.5,0,7.8-5.2,6.5-9.9l-6.6-24.7c-1.3-4.7-7-5.9-10.6-5.3l-60.4,9.4C2105,1688.7,2103.7,1694.8,2104.9,1699.6z M1484.4,1562.6&#10;&#9;&#9;&#9;&#9;c4.2,5.1,10.3,3.2,13.7-0.3l8.6-8.6c3.5-3.5,3.4-9,0.8-13.3l-32.3-54.6c-2.8-4.7-8.4-4.2-11.9-0.7l-18.1,18.1&#10;&#9;&#9;&#9;&#9;c-3.5,3.5-1.6,9.1,0.7,11.9L1484.4,1562.6z M1556.9,1499.1c2.8,6,9.1,5.7,13.3,3.3l10.6-6.1c4.3-2.5,5.6-7.8,4.2-12.7l-17-61.1&#10;&#9;&#9;&#9;&#9;c-1.5-5.3-7-6.2-11.3-3.7l-22.2,12.8c-4.3,2.5-3.9,8.3-2.4,11.6L1556.9,1499.1z M1381.4,1606.7l49.4,36&#10;&#9;&#9;&#9;&#9;c5.4,3.8,10.7,0.4,13.2-3.8l6.1-10.6c2.5-4.3,1-9.6-2.7-13.1l-45.3-44.4c-3.9-3.9-9.2-1.9-11.6,2.4l-12.8,22.2&#10;&#9;&#9;&#9;&#9;C1375.2,1599.7,1378.5,1604.7,1381.4,1606.7z M1880.5,2155.8c-1.1-6.5-7.3-7.9-12-6.6l-11.8,3.2c-4.7,1.3-7.5,6.1-7.4,11.2&#10;&#9;&#9;&#9;&#9;l0.7,63.4c0,5.5,5.2,7.8,9.9,6.5l24.7-6.6c4.7-1.3,5.9-7,5.3-10.6L1880.5,2155.8z M2027.7,1551.8l54.6-32.3&#10;&#9;&#9;&#9;&#9;c4.7-2.8,4.2-8.4,0.7-11.8l-18.1-18.1c-3.5-3.5-9.1-1.6-11.9,0.7l-47.6,38.4c-5.1,4.2-3.2,10.3,0.3,13.8l8.6,8.6&#10;&#9;&#9;&#9;&#9;C2017.8,1554.5,2023.4,1554.4,2027.7,1551.8z M2039.4,2049.7c-4.2-5.1-10.3-3.2-13.8,0.3l-8.6,8.6c-3.5,3.5-3.4,9-0.8,13.3&#10;&#9;&#9;&#9;&#9;l32.3,54.6c2.8,4.7,8.4,4.2,11.9,0.7l18.1-18.1c3.5-3.5,1.6-9.1-0.7-11.9L2039.4,2049.7z M2142.4,2005.6l-49.4-36&#10;&#9;&#9;&#9;&#9;c-5.4-3.8-10.7-0.4-13.2,3.8l-6.1,10.6c-2.5,4.3-1,9.6,2.7,13.1l45.3,44.4c3.9,3.9,9.2,1.9,11.6-2.4l12.8-22.2&#10;&#9;&#9;&#9;&#9;C2148.6,2012.6,2145.4,2007.6,2142.4,2005.6z M2191.1,1788.6l-60.8-6.5c-6.6-0.6-9.5,5-9.5,9.9l0,12.2c0,4.9,4,8.8,8.9,10&#10;&#9;&#9;&#9;&#9;l61.4,15.8c5.3,1.4,8.9-3,8.9-7.9l0-25.6C2200,1791.6,2194.7,1788.9,2191.1,1788.6z M2181,1900.3l-57-22&#10;&#9;&#9;&#9;&#9;c-6.2-2.3-10.5,2.4-11.8,7.1l-3.2,11.8c-1.3,4.7,1.6,9.5,6,11.9l55.2,31.1c4.8,2.7,9.3-0.6,10.6-5.3l6.6-24.7&#10;&#9;&#9;&#9;&#9;C2188.8,1905.4,2184.5,1901.5,2181,1900.3z M1890.7,1387.1l-24.7-6.6c-4.7-1.3-8.7,3.1-9.9,6.5l-22,57&#10;&#9;&#9;&#9;&#9;c-2.3,6.2,2.4,10.5,7.1,11.8l11.8,3.1c4.8,1.3,9.5-1.6,12-6l31.1-55.2C1898.7,1393,1895.4,1388.4,1890.7,1387.1z M1776,2165.1&#10;&#9;&#9;&#9;&#9;h-12.2c-4.9,0-8.8,4-10,8.9l-15.8,61.4c-1.4,5.3,3,8.9,7.9,8.9h25.6c4.9,0,7.6-5.3,7.9-8.9l6.5-60.8&#10;&#9;&#9;&#9;&#9;C1786.6,2168,1781,2165.1,1776,2165.1z M1777.9,1368.1h-25.6c-4.9,0-7.6,5.3-7.9,8.9l-6.5,60.8c-0.6,6.6,5,9.5,9.9,9.5h12.2&#10;&#9;&#9;&#9;&#9;c4.9,0,8.8-4,10-8.9l15.8-61.4C1787.1,1371.6,1782.8,1368.1,1777.9,1368.1z M1682.7,2156.5l-11.8-3.2c-4.7-1.3-9.5,1.6-11.9,6&#10;&#9;&#9;&#9;&#9;l-31.1,55.2c-2.7,4.8,0.6,9.3,5.3,10.6l24.7,6.6c4.7,1.3,8.7-3.1,9.9-6.5l22-57C1692.1,2162,1687.4,2157.8,1682.7,2156.5z&#10;&#9;&#9;&#9;&#9; M1994.8,1434.7l-22.2-12.8c-4.3-2.5-9.2,0.8-11.3,3.7l-36,49.4c-3.8,5.4-0.4,10.7,3.8,13.2l10.6,6.1c4.3,2.5,9.6,1,13.1-2.7&#10;&#9;&#9;&#9;&#9;l44.4-45.3C2001,1442.5,1999,1437.2,1994.8,1434.7z M1967,2113.2c-2.8-6-9.1-5.7-13.4-3.3l-10.6,6.1c-4.3,2.5-5.6,7.8-4.2,12.7&#10;&#9;&#9;&#9;&#9;l17.1,61.1c1.5,5.3,7,6.2,11.3,3.7l22.2-12.8c4.3-2.5,3.9-8.3,2.4-11.6L1967,2113.2z" style="fill: rgb(40, 40, 41);"/>
			<path class="st254" d="M2030,1806.1c0,148.1-120,268.1-268.1,268.1c-148.1,0-268.1-120-268.1-268.1&#10;&#9;&#9;&#9;&#9;c0-148.1,120-268.1,268.1-268.1C1910,1538,2030,1658.1,2030,1806.1z" style="fill: rgb(109, 110, 113);"/>
			<g>
				<path class="st255" d="M1803.6,1806.1c0,23-18.7,41.7-41.7,41.7c-23,0-41.7-18.7-41.7-41.7c0-23,18.7-41.7,41.7-41.7&#10;&#9;&#9;&#9;&#9;&#9;C1784.9,1764.5,1803.6,1783.1,1803.6,1806.1z" style="fill: rgb(88, 89, 91);"/>
				<path d="M 1779.200024 1666.900024 A 17.299999 17.299999 0 0 1 1761.900024 1684.200024 A 17.299999 17.299999 0 0 1 1744.600025 1666.900024 A 17.299999 17.299999 0 0 1 1761.900024 1649.600025 A 17.299999 17.299999 0 0 1 1779.200024 1666.900024 Z" class="st344" style="fill: rgb(40, 40, 41);"/>
				<path class="st344" d="M1650,1721.5c8.3,4.8,11.1,15.4,6.3,23.7c-4.8,8.3-15.4,11.1-23.7,6.3c-8.3-4.8-11.1-15.4-6.3-23.7&#10;&#9;&#9;&#9;&#9;&#9;C1631.1,1719.5,1641.7,1716.7,1650,1721.5z" style="fill: rgb(40, 40, 41);"/>
				<path class="st344" d="M1632.6,1860.8c8.3-4.8,18.9-2,23.7,6.3c4.8,8.3,1.9,18.9-6.3,23.7c-8.3,4.8-18.9,1.9-23.7-6.3&#10;&#9;&#9;&#9;&#9;&#9;C1621.5,1876.2,1624.3,1865.6,1632.6,1860.8z" style="fill: rgb(40, 40, 41);"/>
				<path class="st344" d="M1744.6,1945.4c0-9.6,7.8-17.3,17.3-17.3c9.6,0,17.3,7.8,17.3,17.3c0,9.6-7.8,17.3-17.3,17.3&#10;&#9;&#9;&#9;&#9;&#9;C1752.3,1962.8,1744.6,1955,1744.6,1945.4z" style="fill: rgb(40, 40, 41);"/>
				<path class="st344" d="M1873.9,1890.8c-8.3-4.8-11.1-15.4-6.3-23.7c4.8-8.3,15.4-11.1,23.7-6.3c8.3,4.8,11.1,15.4,6.3,23.7&#10;&#9;&#9;&#9;&#9;&#9;C1892.8,1892.8,1882.1,1895.6,1873.9,1890.8z" style="fill: rgb(40, 40, 41);"/>
				<path class="st344" d="M1891.2,1751.5c-8.3,4.8-18.9,2-23.7-6.3c-4.8-8.3-1.9-18.9,6.3-23.7c8.3-4.8,18.9-1.9,23.7,6.3&#10;&#9;&#9;&#9;&#9;&#9;C1902.3,1736.1,1899.5,1746.7,1891.2,1751.5z" style="fill: rgb(40, 40, 41);"/>
			</g>
			<path class="st256" d="M1549.9,1714.6c-12.1,28.1-18.9,59-18.9,91.5c0,32.5,6.7,63.5,18.9,91.5l18.1-10.4&#10;&#9;&#9;&#9;&#9;c-10.4-24.9-16.2-52.3-16.2-81.1s5.8-56.1,16.2-81.1L1549.9,1714.6z M1576.7,1668.3l18.1,10.5c33.3-43.6,83.3-73.8,140.4-81.1&#10;&#9;&#9;&#9;&#9;v-20.9C1670.4,1584.3,1613.8,1618.6,1576.7,1668.3z M1594.8,1933.5l-18.1,10.5c37.1,49.7,93.7,84,158.5,91.5v-20.9&#10;&#9;&#9;&#9;&#9;C1678.1,2007.3,1628.1,1977.1,1594.8,1933.5z M1973.9,1714.6l-18.1,10.4c10.4,25,16.2,52.3,16.2,81.1c0,28.7-5.8,56.1-16.2,81.1&#10;&#9;&#9;&#9;&#9;l18.1,10.4c12.1-28.1,18.9-59,18.9-91.5C1992.8,1773.6,1986,1742.7,1973.9,1714.6z M1788.6,2014.6v20.9&#10;&#9;&#9;&#9;&#9;c64.8-7.5,121.4-41.8,158.5-91.5l-18.1-10.5C1895.7,1977.1,1845.8,2007.3,1788.6,2014.6z M1788.6,1576.8v20.9&#10;&#9;&#9;&#9;&#9;c57.1,7.3,107.1,37.5,140.4,81.1l18.1-10.5C1910.1,1618.6,1853.4,1584.3,1788.6,1576.8z" style="fill: rgb(65, 64, 66);"/>
		</g>
	</g>
</svg>
